<svg xmlns="http://www.w3.org/2000/svg" width="260" height="31.272" viewBox="0 0 260 31.272">
  <g id="Grupo_17947" data-name="Grupo 17947" transform="translate(-172.08 -25.833)">
    <g id="Grupo_17930" data-name="Grupo 17930" transform="translate(172.08 25.833)">
      <g id="Grupo_17925" data-name="Grupo 17925">
        <path id="Trazado_11152" data-name="Trazado 11152" d="M511.5,128.128v-6.212h-6.81v-6.467L499.8,116.5a6.991,6.991,0,0,1-1.03,2.577,6.817,6.817,0,0,1-4.449,3.084c-.1.022-.2.033-.3.051v5.912h3.21V138.85a7.268,7.268,0,0,0,2.233,5.776q2.231,1.956,6.6,1.956a20.529,20.529,0,0,0,2.623-.208,15.209,15.209,0,0,0,2.578-.529v-6.028a12.165,12.165,0,0,1-1.7.39,11.358,11.358,0,0,1-1.658.115,3.67,3.67,0,0,1-2.508-.666,3.021,3.021,0,0,1-.712-2.278v-9.25Z" transform="translate(-435.124 -115.449)" fill="#ffffff"/>
        <path id="Trazado_11153" data-name="Trazado 11153" d="M426.8,144.406l3.543-5.016a21.243,21.243,0,0,0,4.188,2,11.857,11.857,0,0,0,3.728.621,6.719,6.719,0,0,0,2.922-.529,1.591,1.591,0,0,0,1.082-1.4,1.344,1.344,0,0,0-.6-1.129,4.313,4.313,0,0,0-1.886-.621l-4.832-.735a9.913,9.913,0,0,1-5.523-2.417,6.437,6.437,0,0,1-1.932-4.854,6.867,6.867,0,0,1,2.806-5.8,12.494,12.494,0,0,1,7.685-2.117,19.083,19.083,0,0,1,5.27.758,18.846,18.846,0,0,1,4.9,2.187l-3.543,4.786a17.41,17.41,0,0,0-3.774-1.681,12.651,12.651,0,0,0-3.589-.527,4.752,4.752,0,0,0-2.3.482,1.434,1.434,0,0,0-.874,1.266,1.348,1.348,0,0,0,.644,1.172,5.574,5.574,0,0,0,2.209.668l4.832.737a9.8,9.8,0,0,1,5.546,2.37,6.24,6.24,0,0,1,1.956,4.717,6.72,6.72,0,0,1-.829,3.267,8.248,8.248,0,0,1-2.278,2.623,11.025,11.025,0,0,1-3.473,1.725,14.836,14.836,0,0,1-4.373.622,24.469,24.469,0,0,1-6.419-.806A15.085,15.085,0,0,1,426.8,144.406Z" transform="translate(-426.804 -116.31)" fill="#ffffff"/>
        <path id="Trazado_11154" data-name="Trazado 11154" d="M466.205,144.406l3.543-5.016a21.245,21.245,0,0,0,4.188,2,11.857,11.857,0,0,0,3.727.621,6.719,6.719,0,0,0,2.922-.529,1.591,1.591,0,0,0,1.082-1.4,1.344,1.344,0,0,0-.6-1.129,4.314,4.314,0,0,0-1.887-.621l-4.832-.735a9.914,9.914,0,0,1-5.523-2.417,6.437,6.437,0,0,1-1.932-4.854,6.867,6.867,0,0,1,2.806-5.8,12.492,12.492,0,0,1,7.685-2.117,19.082,19.082,0,0,1,5.27.758,18.847,18.847,0,0,1,4.9,2.187l-3.543,4.786a17.409,17.409,0,0,0-3.774-1.681,12.651,12.651,0,0,0-3.589-.527,4.752,4.752,0,0,0-2.3.482,1.434,1.434,0,0,0-.875,1.266,1.348,1.348,0,0,0,.644,1.172,5.574,5.574,0,0,0,2.209.668l4.832.737a9.8,9.8,0,0,1,5.546,2.37,6.239,6.239,0,0,1,1.956,4.717,6.72,6.72,0,0,1-.829,3.267,8.248,8.248,0,0,1-2.278,2.623,11.026,11.026,0,0,1-3.473,1.725,14.835,14.835,0,0,1-4.373.622,24.469,24.469,0,0,1-6.419-.806A15.083,15.083,0,0,1,466.205,144.406Z" transform="translate(-431.681 -116.31)" fill="#ffffff"/>
        <path id="Trazado_11155" data-name="Trazado 11155" d="M539.582,143.893a15.608,15.608,0,0,1-4.717,2.807,15.956,15.956,0,0,1-5.454.875,13.98,13.98,0,0,1-5.2-.967,12.81,12.81,0,0,1-4.21-2.669,12.676,12.676,0,0,1-2.807-4.026,12.016,12.016,0,0,1-1.035-4.947,12.493,12.493,0,0,1,.989-4.947,12.619,12.619,0,0,1,2.692-4.027,12.342,12.342,0,0,1,4.026-2.67,12.9,12.9,0,0,1,4.994-.966,11.893,11.893,0,0,1,8.813,3.773,12.539,12.539,0,0,1,2.554,4.212,15.063,15.063,0,0,1,.921,5.315V137.5H523.8a6.417,6.417,0,0,0,2.3,2.784,6.312,6.312,0,0,0,3.681,1.081,7.554,7.554,0,0,0,2.761-.484,6.028,6.028,0,0,0,2.117-1.357Zm-10.86-15.463a5.105,5.105,0,0,0-3.175,1.013,5.393,5.393,0,0,0-1.887,2.854h10.17a5.88,5.88,0,0,0-1.957-2.807A4.976,4.976,0,0,0,528.722,128.43Z" transform="translate(-437.863 -116.304)" fill="#ffffff"/>
        <g id="Grupo_17924" data-name="Grupo 17924" transform="translate(24.376)">
          <path id="Trazado_11156" data-name="Trazado 11156" d="M454.623,115.449a4.12,4.12,0,0,0,8.23,0Z" transform="translate(-454.623 -115.449)" fill="#ffffff"/>
          <rect id="Rect치ngulo_3668" data-name="Rect치ngulo 3668" width="7.455" height="24.344" transform="translate(0.387 6.467)" fill="#ffffff"/>
        </g>
      </g>
      <g id="Grupo_17928" data-name="Grupo 17928" transform="translate(105.204)">
        <path id="Trazado_11157" data-name="Trazado 11157" d="M688.725,128.128v-6.212h-6.811v-6.467l-4.887,1.055a7.011,7.011,0,0,1-1.03,2.577,6.819,6.819,0,0,1-4.451,3.084c-.1.022-.2.033-.3.051v5.912h3.211V138.85a7.27,7.27,0,0,0,2.232,5.776q2.23,1.956,6.6,1.956a20.53,20.53,0,0,0,2.623-.208,15.2,15.2,0,0,0,2.577-.529v-6.028a12.114,12.114,0,0,1-1.7.39,11.335,11.335,0,0,1-1.657.115,3.671,3.671,0,0,1-2.508-.666,3.022,3.022,0,0,1-.713-2.278v-9.25Z" transform="translate(-562.263 -115.449)" fill="#ffffff"/>
        <path id="Trazado_11158" data-name="Trazado 11158" d="M560.121,141.125a6.189,6.189,0,0,0,2.807-.643,8.5,8.5,0,0,0,2.485-1.98l4.417,4.6a12.6,12.6,0,0,1-4.509,3.29,13.691,13.691,0,0,1-5.569,1.174,13.321,13.321,0,0,1-5.085-.967,12.421,12.421,0,0,1-7.8-11.642,12.613,12.613,0,0,1,.988-4.994,12.21,12.21,0,0,1,2.715-4,13.138,13.138,0,0,1,9.18-3.657,14.017,14.017,0,0,1,5.707,1.2,13.228,13.228,0,0,1,4.6,3.313l-4.555,4.74a9.495,9.495,0,0,0-2.623-2.117,6.316,6.316,0,0,0-2.946-.69,5.23,5.23,0,0,0-4.026,1.8,6.325,6.325,0,0,0-1.633,4.418,6.139,6.139,0,0,0,1.68,4.394A5.507,5.507,0,0,0,560.121,141.125Z" transform="translate(-546.868 -116.297)" fill="#ffffff"/>
        <path id="Trazado_11159" data-name="Trazado 11159" d="M575.527,147.1V122.751h7.455v2.439a8.457,8.457,0,0,1,2.808-2.209,8.109,8.109,0,0,1,3.59-.782,13.508,13.508,0,0,1,1.7.161,2.731,2.731,0,0,1,1.1.437v6.488a9.163,9.163,0,0,0-1.656-.53,8.6,8.6,0,0,0-1.887-.207,6.584,6.584,0,0,0-3.245.829,6.69,6.69,0,0,0-2.416,2.255V147.1Z" transform="translate(-550.415 -116.284)" fill="#ffffff"/>
        <g id="Grupo_17926" data-name="Grupo 17926" transform="translate(42.99 0.027)">
          <path id="Trazado_11160" data-name="Trazado 11160" d="M605.493,115.48a4.119,4.119,0,0,0,8.229,0Z" transform="translate(-597.114 -115.48)" fill="#ffffff"/>
          <path id="Trazado_11161" data-name="Trazado 11161" d="M619.353,143.893a15.612,15.612,0,0,1-4.718,2.807,15.952,15.952,0,0,1-5.454.875,13.975,13.975,0,0,1-5.2-.967,12.544,12.544,0,0,1-7.019-6.7,12.018,12.018,0,0,1-1.034-4.947,12.5,12.5,0,0,1,.988-4.947,12.634,12.634,0,0,1,2.692-4.027,12.35,12.35,0,0,1,4.026-2.67,12.9,12.9,0,0,1,4.994-.966,11.893,11.893,0,0,1,8.813,3.773A12.524,12.524,0,0,1,620,130.341a15.063,15.063,0,0,1,.921,5.315V137.5H603.569a6.423,6.423,0,0,0,2.3,2.784,6.314,6.314,0,0,0,3.681,1.081,7.553,7.553,0,0,0,2.761-.484,6.028,6.028,0,0,0,2.117-1.357Zm-10.86-15.463a5.106,5.106,0,0,0-3.176,1.013,5.4,5.4,0,0,0-1.886,2.854H613.6a5.875,5.875,0,0,0-1.957-2.807A4.976,4.976,0,0,0,608.493,128.43Z" transform="translate(-595.93 -116.331)" fill="#ffffff"/>
        </g>
        <path id="Trazado_11162" data-name="Trazado 11162" d="M645.6,146.264v-1.795a11.674,11.674,0,0,1-3.083,1.564,10.822,10.822,0,0,1-3.451.553,12.283,12.283,0,0,1-4.854-.967,12.133,12.133,0,0,1-3.959-2.669,12.634,12.634,0,0,1-2.646-3.98,12.41,12.41,0,0,1-.966-4.9,12.177,12.177,0,0,1,.989-4.9,12.329,12.329,0,0,1,6.719-6.605,13.129,13.129,0,0,1,8.215-.551,12.349,12.349,0,0,1,2.946,1.2v-6.115l7.455-1.612v30.784Zm-11.643-12.2a5.819,5.819,0,0,0,1.863,4.4,6.335,6.335,0,0,0,4.533,1.771,8.109,8.109,0,0,0,2.854-.482,6.738,6.738,0,0,0,2.3-1.45v-8.513a7.232,7.232,0,0,0-2.3-1.381,7.984,7.984,0,0,0-2.854-.506,6.314,6.314,0,0,0-4.556,1.773A5.855,5.855,0,0,0,633.955,134.068Z" transform="translate(-556.741 -115.453)" fill="#ffffff"/>
        <g id="Grupo_17927" data-name="Grupo 17927" transform="translate(98.839 0.027)">
          <path id="Trazado_11163" data-name="Trazado 11163" d="M659.668,115.48a4.119,4.119,0,0,0,8.229,0Z" transform="translate(-659.668 -115.48)" fill="#ffffff"/>
          <rect id="Rect치ngulo_3669" data-name="Rect치ngulo 3669" width="7.455" height="24.344" transform="translate(0.387 6.44)" fill="#ffffff"/>
        </g>
        <path id="Trazado_11164" data-name="Trazado 11164" d="M715.313,129.706a1.115,1.115,0,0,0-1.47.575l-1.448,3.306a7.1,7.1,0,0,1,.133,1.372,6.074,6.074,0,0,1-1.725,4.372,5.838,5.838,0,0,1-8.422,0,6.46,6.46,0,0,1,0-8.789,5.836,5.836,0,0,1,8.422,0,6.217,6.217,0,0,1,.884,1.173l.874-1.994a2.513,2.513,0,0,1,3.314-1.3l2.68,1.173a12.624,12.624,0,0,0-2.6-3.613,13.229,13.229,0,0,0-4.188-2.693,14.053,14.053,0,0,0-10.354,0,13.227,13.227,0,0,0-4.188,2.693,12.692,12.692,0,0,0-2.807,4.027,12.342,12.342,0,0,0,0,9.894,12.68,12.68,0,0,0,2.807,4.026,12.872,12.872,0,0,0,4.188,2.669,14.337,14.337,0,0,0,10.354,0,12.874,12.874,0,0,0,4.188-2.669,12.676,12.676,0,0,0,2.807-4.026,12.018,12.018,0,0,0,1.036-4.947,12.158,12.158,0,0,0-.516-3.515Z" transform="translate(-565.002 -116.297)" fill="#ffffff"/>
      </g>
    </g>
  </g>
</svg>
